<svg xmlns="http://www.w3.org/2000/svg" class="svg-icon-path-icon fill" viewBox="0 0 32 32" width="20" height="20"><path d="M16 1.778c7.855 0 14.222 6.367 14.222 14.222s-6.367 14.222-14.222 14.222-14.222-6.367-14.222-14.222 6.367-14.222 14.222-14.222zM16.939 7.111h-0.1c-0.43 0-0.768 0.327-0.82 0.74-0.002 0.021-0.009 0.037-0.011 0.059-0.002 0.014-0.009 0.027-0.009 0.041v10.676c-0.468-0.249-0.99-0.404-1.556-0.404h-2.222c-1.84 0-3.333 1.493-3.333 3.333s1.493 3.333 3.333 3.333h2.222c1.84 0 3.333-1.493 3.333-3.333 0-0.076-0.018-0.148-0.023-0.222h0.023v-11.794l2.386 1.378c0.127 0.075 0.28 0.119 0.443 0.119h0c0.308 0 0.606-0.16 0.77-0.444 0.247-0.425 0.101-0.969-0.324-1.216l-3.639-2.1c-0.137-0.096-0.293-0.165-0.475-0.165zM14.444 20c0.857 0 1.556 0.699 1.556 1.556s-0.699 1.556-1.556 1.556h-2.222c-0.857 0-1.556-0.699-1.556-1.556s0.699-1.556 1.556-1.556h2.222z"></path></svg>